<?xml version="1.0" encoding="utf-8"?>

<svg xmlns="http://www.w3.org/2000/svg" xmlns:xlink="http://www.w3.org/1999/xlink" 
  height="512" width="512" viewBox="0 0 512 512">

  <image href="https://s0.gifyu.com/images/hello_kitty_Hello_Kitty_Head_ClipArt_in_PNG_File.png" height="512" width="512" />

  <rect width="512" height="512" stroke="red" fill="rgba(255,255,255,0.95)" opacity="0.95" ></rect>

  <text x="2" y="12" font-size="12" text-anchor="start" fill="red">0</text>
  <path d="M256  64 H0 H512" stroke="lightgray" fill="white"></path>
  <text x="2" y="68" font-size="12" text-anchor="start" fill="red">64</text>
  <path d="M256 128 H0 H512" stroke="lightgray" fill="white"></path>
  <text x="2" y="132" font-size="12" text-anchor="start" fill="red">128</text>
  <path d="M256 192 H0 H512" stroke="lightgray" fill="white"></path>
  <text x="2" y="196" font-size="12" text-anchor="start" fill="red">192</text>
  <path d="M256 256 H0 H512" stroke="lightgray" fill="white"></path>
  <text x="2" y="260" font-size="12" text-anchor="start" fill="red">256</text>
  <path d="M256 320 H0 H512" stroke="lightgray" fill="white"></path>
  <text x="2" y="324" font-size="12" text-anchor="start" fill="red">320</text>
  <path d="M256 384 H0 H512" stroke="lightgray" fill="white"></path>
  <text x="2" y="388" font-size="12" text-anchor="start" fill="red">384</text>
  <path d="M256 448 H0 H512" stroke="lightgray" fill="white"></path>
  <text x="2" y="452" font-size="12" text-anchor="start" fill="red">448</text>
  <text x="2" y="510" font-size="12" text-anchor="start" fill="red">512</text>

  <path d="M64  0 V512" stroke="lightgray" fill="white"></path>
  <text x="58" y="12" font-size="12" text-anchor="start" fill="red">64</text>
  <path d="M128  0 V512" stroke="lightgray" fill="white"></path>
  <text x="118" y="12" font-size="12" text-anchor="start" fill="red">128</text>
  <path d="M195  0 V512" stroke="lightgray" fill="white"></path>
  <text x="186" y="12" font-size="12" text-anchor="start" fill="red">192</text>
  <path d="M256  0 V512" stroke="lightgray" fill="white"></path>
  <text x="246" y="12" font-size="12" text-anchor="start" fill="red">256</text>
  <path d="M320  0 V512" stroke="lightgray" fill="white"></path>
  <text x="310" y="12" font-size="12" text-anchor="start" fill="red">320</text>
  <path d="M384  0 V512" stroke="lightgray" fill="white"></path>
  <text x="374" y="12" font-size="12" text-anchor="start" fill="red">384</text>
  <path d="M448  0 V512" stroke="lightgray" fill="white"></path>
  <text x="438" y="12" font-size="12" text-anchor="start" fill="red">448</text>
  <text x="492" y="12" font-size="12" text-anchor="start" fill="red">512</text>

  <path d="M84 195 A195 153 0 1 0 428 195,
                   A490 110 125 0 0 332 128,
                   A170 100 0 0 0 180 128,
                   A500 110 55 0 0 84 198"  
                   stroke-width="10" stroke="#FF0000" fill="none" opacity="0.5"/>

  <path d="M160 320 A10 15 1 1 0 145 310,
                    A10 15 1 0 0 165 305"   
                   stroke-width="5" stroke="black" fill="none" opacity="0.5"/>

  <path d="M350 320 A10 15 1 1 0 345 310,
                    A10 15 1 0 0 365 305"   
                   stroke-width="5" stroke="black" fill="none" opacity="0.5"/>

  <path d="M245 330 A8 5 0 1 0 270 350,
                    A8 5 0 1 0 245 330"   
                   stroke-width="5" stroke="black" fill="none" opacity="0.5"/>

  <path d="M420 290 A15 5 1 0 1 500 290,"   
                   stroke-width="5" stroke="black" fill="none" opacity="0.5"/>

  <path d="M420 320 A20 4 6 0 1 480 330,"   
                   stroke-width="5" stroke="black" fill="none" opacity="0.5"/>

  <path d="M410 350 A30 10 25 0 1 470 384,"   
                   stroke-width="5" stroke="black" fill="none" opacity="0.5"/>

  <path d="M15 290 A20 2 0 0 1 90 290,"   
                   stroke-width="5" stroke="black" fill="none" opacity="0.5"/>

  <path d="M40 335 A10 2 0 1 1 95 330,"   
                   stroke-width="5" stroke="black" fill="none" opacity="0.5"/>

  <path d="M50 390 A1 0 0 1 1 115 360,"   
                   stroke-width="5" stroke="black" fill="none" opacity="0.5"/>

  <path d="M325 180 A10 10 0 1 0 390 180,
                    A10 10 0 1 0 325 180"   
                   stroke-width="10" stroke="blue" fill="none" opacity="0.5"/>

  <path d="M355 145 A5 6 0 1 0 270 128,
                    A5 6 0 1 0 325 190"   
                   stroke-width="10" stroke="blue" fill="none" opacity="0.5"/>

  <path d="M385 160 A7 7 0 1 1 440 230,
                    A10 7 0 1 1 383 200"   
                   stroke-width="10" stroke="blue" fill="none" opacity="0.5"/>

  <path d="M335 150 A15 15 0 1 0 320 175 ,"   
                   stroke-width="5" stroke="black" fill="none" opacity="0.5"/>

  <path d="M395 180 A15 15 0 1 1 385 205 ,"   
                   stroke-width="5" stroke="black" fill="none" opacity="0.5"/>
  <circle cx="0" cy="0" r="6" stroke="blue" fill="none">
    <animateMotion dur="10s" path="M84 195 A195 153 0 1 0 428 195,
                                           A500 110 125 0 0 332 128,
                                           A170 100 0 0 0 180 128,
                                           A500 110 55 0 0 84 198"
                                           repeatCount="indefinite"/>
  </circle>

  <circle id="c2" cx="155" cy="305" r="1" stroke="red" fill="none">
    <animate attributeName="r" to="10" dur="2s" repeatCount="indefinite"/>
  </circle>

  <circle id="c2" cx="355" cy="305" r="1" stroke="red" fill="none">
    <animate attributeName="r" to="10" dur="2s" repeatCount="indefinite"/>
  </circle>

</svg>
    