<?xml version="1.0" standalone="no"?>
<!DOCTYPE svg PUBLIC "-//W3C//DTD SVG 1.1//EN" "http://www.w3.org/Graphics/SVG/1.1/DTD/svg11.dtd" >
<svg xmlns="http://www.w3.org/2000/svg" xmlns:xlink="http://www.w3.org/1999/xlink" version="1.1" viewBox="-10 0 266 256">
   <path fill="currentColor"
d="M114 8q-4 -3 1 -2q17 8 18 25q0 1 1 2q24 -3 24 -9q1 -2 4 -2q2 1 6 2h6q11 0 10 1l-1 1q0 4 -3 3q-2 2 -9 1q-2 0 -6 2q-3 1 -6 1q-15 4 -25 5q-2 4 -1 12q25 -3 26 -5q2 -2 5 -2q2 0 5 1q2 1 5 0q3 1 2 1l5 1l-1 1q0 3 -10 4q-36 8 -71 30l-3 3q0 1 2 0q3 -1 7 -2
q40 -14 61 -15q5 -1 10 1q3 1 3 2q0 3 -4 4q-5 0 -12 3q-13 8 -33 16q25 -4 24 -6q1 -1 3 -1q2 1 12 3v1q2 1 0 2q-1 2 -6 1q-29 4 -53 9q2 3 -2 6q-2 3 -5 -3q-6 -7 -10 -10q-3 1 -4 -2v-1q-2 -6 1 -8q16 -14 55 -30q1 -2 -1 -1q-11 0 -43 9q-10 4 -19 -1q-3 -1 0 -2
q9 0 33 -5q6 -1 9 -2v-12q-8 2 -24 3q-11 4 -28 -4q-4 -1 0 -1q17 5 52 -3q-1 -20 -10 -27zM155 72q-17 2 -54 13q-4 2 -2 4q0 2 2 3q2 3 5 6q1 -2 5 -4q17 -3 46 -20q3 -1 -2 -2zM143 113q-25 5 -52 22q-2 2 -4 1q-2 1 -2 -2l-1 -2q0 -2 2 -4l3 -6q-36 8 -54 10
q-10 3 -18 -2q-3 -1 1 -2q8 1 26 -2t48 -9q3 -4 4 -4t1 3q20 -3 41 -8q17 -3 18 -8l2 -2q2 -2 3 -2h2q2 1 5 3q2 1 3 1q2 0 1 2q0 1 -3 2q-2 1 -3 1q-1 1 -2 1q30 -3 44 -5q3 0 0 -1q-8 -1 -12 -2q-3 -2 0 -2q23 -1 39 4q3 1 3 3q-1 2 -2 1q-5 0 -9 1h-3h-8q-12 1 -46 5
q-8 1 -14 1q-28 18 -43 29q-2 2 -1 5q14 0 17 7t5 8q1 1 1 2v1q0 1 -1 2q-3 1 -6 9q-12 23 -32 37q-3 1 -5 1q-4 0 -5 -3q-5 -8 -8 -19q-24 16 -45 24q-3 0 1 -3q48 -19 66 -59q-18 7 -27 12q-4 2 -5 2q-5 1 -4 -1q-2 -4 2 -5q8 -2 14 -5q13 -6 22 -12q-1 -5 1 -6q1 -1 7 0
q4 -3 34 -23q1 -2 -1 -1zM96 122q-2 3 -2 4l3 -1q1 0 4 -1q13 -5 18 -8q-14 3 -23 6zM109 150q-14 20 -29 38q3 9 10 15q3 3 11 -1q21 -17 24 -39q2 -18 -16 -13zM181 149h2q1 -1 3 -1q5 2 8 4q1 1 3 1q0 1 1 1q2 2 1 4q0 4 -2 3q-5 2 -6 3q-8 11 -16 18q14 3 19 4l2 1
q3 1 5 0v1q2 1 1 2q-2 4 -8 2q-3 0 -4 -1q-15 -5 -21 -2q-1 0 -4 1h-7q9 9 5 10q-2 3 -3 1q-2 -1 -5 -3q-4 -2 -5 -4q-4 -3 -10 -7q-1 -1 -1 -2q-3 -2 -2 -5l2 -2q2 -1 1 -5q-4 -12 0 -18q1 -1 2 0q-2 6 0 8q7 -3 26 -9q12 -4 13 -5zM180 154l-18 6q-6 5 -20 5q2 14 13 22
q22 -7 28 -27q1 -3 0 -5q0 -1 -3 -1z" />
</svg>
