<?xml version="1.0" encoding="utf-8"?>
<!-- Generator: Adobe Illustrator 21.0.2, SVG Export Plug-In . SVG Version: 6.00 Build 0)  -->
<svg version="1.1" id="圖層_1" xmlns="http://www.w3.org/2000/svg" xmlns:xlink="http://www.w3.org/1999/xlink" x="0px" y="0px"
	 viewBox="0 0 272 256" style="enable-background:new 0 0 272 256;" xml:space="preserve">
<path class="pen line-jia-1" d="m 57.452381,75.595238 c 3.756512,0 5.388232,0.248555 9.071427,-0.755954 7.029934,-1.917253 0.440666,-1.743803 9.827382,-3.023809 9.0194,-1.229918 18.130297,-1.681792 27.21428,-2.267858 2.26316,-0.14601 4.56347,0.353701 6.80358,0 1.30552,-0.206134 10.08078,-2.331206 12.85119,-3.023809 3.97892,-0.99473 8.4629,0.755952 12.09523,0.755952"
       />
    
<path class="pen line-jia-2" d="M 92.982141,47.624999 C 96.901406,61.752252 92.22619,76.33395 92.22619,90.714284"
       />
    
<path class="pen line-jia-3" d="m 77.107142,91.470238 c 10.693637,0.640432 22.138689,3.455752 32.505948,0 0.68036,-0.226788 1.5875,0.226785 2.26786,0 0.46133,-0.153778 1.80653,-1.35813 2.26786,-1.511906 1.8092,-0.603067 1.64343,0.624425 3.02381,-0.755951"
       />
    
<path class="pen line-jia-4" d="m 68.791666,110.36905 c 1.007935,1.5119 2.348963,2.84859 3.023809,4.53571 0.374338,0.93585 -0.142544,2.026 0,3.02381 0.310137,2.17096 2.12617,4.25234 3.023809,6.04762 0.403175,0.80635 -0.403175,2.21746 0,3.02381 0.600602,1.2012 1.511906,2.20666 1.511906,3.77976"
       />
    
<path class="pen line-jia-5" d="m 68.791666,110.36905 c 4.031744,0.25198 8.055626,0.75595 12.095239,0.75595 4.229976,0 15.431346,-2.53492 20.410715,-3.77976 2.05219,-0.51305 15.12872,0.74627 15.875,0 0.17818,-0.17818 -0.22538,-0.64327 0,-0.75596 0.8731,-0.43655 3.47926,0 4.53571,0"
       />
    
<path class="pen line-jia-6" d="m 121.70833,106.58928 c -0.002,4.01584 -3.0793,5.40267 -4.53571,8.31548 -0.22538,0.45076 0.22538,1.06114 0,1.51191 -1.16123,2.32245 -0.42638,-1.25031 -2.26786,1.5119 -0.41933,0.62899 0.53454,1.73332 0,2.26786 -0.17818,0.17818 -0.50397,0 -0.75595,0 -0.50397,0.50397 -1.19317,0.87443 -1.51191,1.5119 -0.33807,0.67615 0.53454,1.73332 0,2.26786 -0.17818,0.17818 -0.64326,-0.22538 -0.75595,0 -0.39959,0.79918 -0.33264,2.17719 -0.75595,3.02381 -0.74236,1.48471 -0.7014,3.77976 -2.26786,3.77976"
       />
    
<path class="pen line-jia-7" d="m 76.35119,130.77976 c 8.404796,0.63516 16.808444,-0.35223 25.21123,-0.35223 2.13159,0 5.19302,-0.48876 7.29472,0.35223"
       />
    
<path class="pen line-jia-8" d="m 62.808339,138.44561 c 4.292314,3.40958 8.855305,6.92646 12.294399,11.22532 0.685556,0.85695 2.138156,1.41199 2.138156,2.6727"
       />
    
<path class="pen line-jia-9" d="m 124.5476,131.22934 c -3.24088,4.96982 -5.65481,10.70076 -9.62171,15.23436 -0.45819,0.52365 -1.1116,0.84433 -1.60361,1.33635 -0.34754,0.34754 -2.35446,2.93996 -2.6727,2.93996"
       />
    
<path class="pen line-jia-10" d="m 32.339613,163.56895 c 0.623628,0 1.248447,0.0385 1.870887,0 8.020553,-0.49612 16.027469,-1.22139 24.054255,-1.60362 18.809792,-0.8957 23.777038,0.15547 42.763125,-2.13816 67.12754,-8.10936 -29.289997,1.03482 35.01231,-4.81084 2.13675,-0.19426 4.26977,-0.59582 6.41447,-0.53455 4.64694,0.13278 1.73435,0.48903 3.4745,1.06908 1.29657,0.43219 3.15792,0 4.54358,0"
       />
    
<path class="pen line-jia-11" d="m 47.306706,184.68324 c 2.551734,0.26432 4.215368,-1.74231 6.414468,-2.67269 1.194649,-0.50543 2.483337,-0.75447 3.741774,-1.06908 6.243397,-1.56085 1.305283,-0.12846 8.552625,-1.33635 1.086988,-0.18117 2.123027,-0.60468 3.207234,-0.80181 3.636917,-0.66126 1.537965,-0.0361 4.543581,-0.26727 1.611786,-0.12398 3.021687,-0.5073 4.543584,0 0.151159,0.0504 0.694462,-0.10734 0.801806,0 1.06366,1.06366 1.316662,3.76713 1.603619,5.34539 0.660622,3.63342 0.599889,7.03197 0.267269,10.69078 -0.125302,1.37834 -0.128548,2.65574 -0.534538,4.00905 -1.64801,5.49336 0.479576,-2.61019 -0.534541,3.4745 -0.147058,0.88235 -2.573109,6.58215 -3.474503,7.48355 -0.202324,0.20232 -0.525213,1.06908 -0.801809,1.06908 -0.02749,0 -4.740005,-5.61267 -5.078121,-5.61267"
       />
    
<path class="pen line-jia-12" d="m 63.610148,168.3798 c 0.356005,6.0027 -0.390075,11.93692 -0.801809,17.90706 -0.04904,0.71103 0.09419,1.43169 0,2.13815 -0.224187,1.6814 -0.620729,1.7501 -1.069078,3.20724 -1.125924,3.65925 -2.262159,7.32101 -3.474506,10.95805 -0.242155,0.72646 -2.10008,5.34539 -1.336347,5.34539"
       />
    
<path class="pen line-jia-13"  d="m 98.622455,176.13062 c 2.348805,7.25828 2.758915,14.94988 4.009045,22.45064 0.4056,2.43364 1.33634,4.34175 1.33634,6.68173"
       />
    
<path class="pen line-jia-14" d="m 98.622455,176.13062 c 6.208115,-2.66062 1.219208,-0.98938 6.949005,-1.87089 1.26074,-0.19396 2.47605,-0.64359 3.74178,-0.80181 3.66896,-0.45862 8.04792,-0.62079 11.75985,-0.26727 1.37247,0.13071 2.94535,0.53562 4.27632,0.80181 1.63174,0.32635 3.069,-0.35944 4.54358,-0.80181 1.58495,-0.47548 3.06793,-0.59852 4.54358,-1.33635"
       />
	   <path class="pen line-jia-15" d="m 134.43657,171.8543 c -1.25587,2.50331 -1.23448,5.34517 -1.87089,8.01809 -0.21543,0.90483 -0.61939,1.76063 -0.80181,2.6727 -0.75102,3.75513 -0.0102,1.44866 -0.26726,4.27631 -0.26623,2.9285 -0.53498,5.88477 -0.80181,8.81989 -0.11481,1.26293 0.41105,4.11224 0,5.34539 -0.0797,0.23905 -0.45486,0.29549 -0.53454,0.53454 -0.21382,0.64145 0.21381,1.49671 0,2.13816 -0.30711,0.92133 -0.26727,0.19798 -0.26727,0.80181"
       />
	   <path class="pen line-jia-16" d="m 103.96784,205.26299 c 0.53454,-0.35636 1.00401,-0.83845 1.60362,-1.06907 1.18628,-0.45626 5.49953,-0.26727 5.87993,-0.26727 4.47008,0 8.68479,0.43887 13.09621,1.06907 0.0864,0.0123 5.61266,1.30441 5.61266,1.06908 0,-0.54191 -0.17818,-1.06907 -0.26727,-1.60361"
       />
</svg>
