<?xml version="1.0" encoding="utf-8"?>
<!-- Generator: Adobe Illustrator 16.0.0, SVG Export Plug-In . SVG Version: 6.00 Build 0)  -->
<!DOCTYPE svg PUBLIC "-//W3C//DTD SVG 1.1//EN" "http://www.w3.org/Graphics/SVG/1.1/DTD/svg11.dtd">
<svg version="1.1" id="圖層_1" xmlns="http://www.w3.org/2000/svg" xmlns:xlink="http://www.w3.org/1999/xlink" x="0px" y="0px"
	 viewBox="0 0 272 256" style="enable-background:new 0 0 272 256;" xml:space="preserve">


<path class="pen line-xin-1" d="m 72.964579,72.69731 c -1.453716,6.379972 -3.205239,12.824949 -6.147197,18.708867 -2.097947,4.195895 -5.277099,8.556689 -8.018087,12.294403 -1.390909,1.89669 -2.798439,3.78291 -4.276312,5.61266 -0.69411,0.85937 -2.313929,1.86366 -2.672696,2.93996 -0.366244,1.09874 0,2.31633 0,3.4745 0,2.85088 0.04525,5.70211 0,8.55263 -0.117507,7.40294 -0.561118,10.267 -0.267269,17.90706 0.144174,3.74853 0.623377,7.47826 0.801809,11.22532 0.156789,3.29259 0.08671,6.59379 0,9.88897 -0.144378,5.48631 -0.773829,10.59018 -2.672696,15.7689 -0.194435,0.53028 -2.672694,5.2381 -2.672694,6.41447"/>
   
<path class="pen line-xin-2"  d="m 54.790252,114.39136 c 7.769905,-1.16085 15.094315,-4.05448 22.450642,-6.68174 1.698836,-0.60673 3.33425,-1.40927 5.078118,-1.87089 1.303288,-0.34499 2.68468,-0.28228 4.009044,-0.53454 1.362858,-0.25959 1.636159,-0.53454 2.939965,-0.53454"/>
    
<path class="pen line-xin-3" d="m 72.162772,112.78774 c 1.138616,4.83596 1.52404,9.7869 2.138156,14.69982 0.234411,1.87529 0.670275,3.72736 0.80181,5.61266 0.136408,1.95523 0,3.91996 0,5.87993 0,6.27868 -0.112229,12.77429 1.069078,18.97614 0.757547,3.97713 1.952212,8.26206 3.207234,12.02713 0.262959,0.78888 0,2.14292 0,2.93996 0,1.03121 -0.323903,2.77007 0,3.74177 0.393261,1.17979 0.267269,-0.97103 0.267269,0.80181"/>
    
<path class="pen line-xin-4" d="m 103.70058,85.258978 c -2.20831,9.983364 -5.138207,19.845412 -6.949013,29.934192 -0.31851,1.77455 -0.250555,3.42435 -0.801809,5.07812 -0.05635,0.16903 0.106908,0.39199 0,0.53453 -0.302379,0.40318 -0.909709,0.59098 -1.069078,1.06908 -0.207875,0.62363 0.28212,0.53454 -0.267269,0.53454"/>
    
<path class="pen line-xin-5" d="m 99.691533,102.36423 c 3.325157,0.31575 6.231107,-1.51305 9.354437,-2.405428 1.76596,-0.504561 3.59868,-0.768671 5.34539,-1.336347 16.86796,-5.48209 -7.05684,1.168368 11.49259,-3.741775 0.52064,-0.137816 9.05152,-2.209429 9.08716,-2.138156 0.19462,0.389247 -1.17677,4.32014 -1.33635,5.078121 -0.90236,4.286205 -0.1186,1.51383 -1.06908,5.078125 -0.31222,1.17083 -0.83143,2.28628 -1.06907,3.4745 -0.0699,0.34944 0.11269,0.73101 0,1.06908 -0.0797,0.23905 -0.44096,0.30058 -0.53454,0.53454 -0.0993,0.24815 0.0648,0.54252 0,0.80181 -0.0779,0.31162 -0.40801,0.50656 -0.53454,0.8018 -0.18899,0.44098 -0.2928,0.92194 -0.53454,1.33635 -0.61828,1.05991 -4.27631,5.52058 -4.27631,6.68174"/>
  
<path class="pen line-xin-6" d="m 112.78774,107.70962 c 1.98,11.57828 0.0368,23.29893 -1.87089,34.74504 -0.23616,1.41698 -0.27756,2.86295 -0.53454,4.27631 -0.27832,1.53079 -0.79868,3.01137 -1.06907,4.54358 -0.26502,1.50177 -0.21811,3.0518 -0.53454,4.54358 -0.50289,2.37076 -1.48952,4.61392 -2.13816,6.94901 -0.63994,1.26121 -0.47128,2.68692 -0.80181,4.00904 -0.34164,1.36658 -0.76425,2.72182 -1.33634,4.00905 -0.43702,0.98328 -1.22752,1.93701 -1.60362,2.93996 -0.15951,0.42535 -0.0883,0.91881 -0.26727,1.33635 -0.39836,0.92951 -1.99657,1.99656 -2.672698,2.67269 -0.140865,0.14087 -0.1079,0.41502 -0.267269,0.53454 -0.225383,0.16904 -0.560229,0.12233 -0.801809,0.26727 -0.821579,0.49295 -1.233795,1.50107 -1.870888,2.13816"/>
    
<path class="pen line-xin-7" d="m 113.05501,135.23838 c 1.244,2.04715 2.9947,3.55195 4.54358,5.34539 0.95506,1.10586 1.69953,2.38455 2.6727,3.4745 5.42347,6.0743 11.73633,11.2625 17.63978,16.83798 4.21008,3.97619 8.74334,8.79802 14.43256,10.42351 0.43688,0.12483 1.37042,0.53454 1.87089,0.53454"/>

</svg>
